<svg width="200" height="200" viewBox="0 0 200 200" fill="none" xmlns="http://www.w3.org/2000/svg">
<circle cx="100" cy="100" r="100" fill="url(#paint0_linear_502_1850)"/>
<path d="M34.7727 148H28.321V130.545H34.7642C36.5426 130.545 38.0739 130.895 39.358 131.594C40.6477 132.287 41.642 133.287 42.3409 134.594C43.0398 135.895 43.3892 137.452 43.3892 139.264C43.3892 141.082 43.0398 142.645 42.3409 143.952C41.6477 145.259 40.6562 146.261 39.3665 146.96C38.0767 147.653 36.5455 148 34.7727 148ZM32.5398 144.403H34.6108C35.5881 144.403 36.4148 144.239 37.0909 143.909C37.7727 143.574 38.2869 143.031 38.6335 142.281C38.9858 141.526 39.1619 140.52 39.1619 139.264C39.1619 138.009 38.9858 137.009 38.6335 136.264C38.2813 135.514 37.7614 134.974 37.0739 134.645C36.392 134.31 35.5511 134.142 34.5511 134.142H32.5398V144.403ZM56.4119 130.545H60.6222V141.804C60.6222 143.105 60.3125 144.239 59.6932 145.205C59.0739 146.165 58.2102 146.909 57.1023 147.438C55.9943 147.96 54.7074 148.222 53.2415 148.222C51.7585 148.222 50.4631 147.96 49.3551 147.438C48.2472 146.909 47.3864 146.165 46.7727 145.205C46.1591 144.239 45.8523 143.105 45.8523 141.804V130.545H50.071V141.438C50.071 142.04 50.2017 142.577 50.4631 143.048C50.7301 143.52 51.1023 143.889 51.5795 144.156C52.0568 144.423 52.6108 144.557 53.2415 144.557C53.8722 144.557 54.4233 144.423 54.8949 144.156C55.3722 143.889 55.7443 143.52 56.0114 143.048C56.2784 142.577 56.4119 142.04 56.4119 141.438V130.545ZM79.7408 139.273C79.7408 141.193 79.3714 142.821 78.6328 144.156C77.8942 145.491 76.8942 146.506 75.6328 147.199C74.3771 147.892 72.968 148.239 71.4055 148.239C69.8374 148.239 68.4254 147.889 67.1697 147.19C65.9141 146.491 64.9169 145.477 64.1783 144.148C63.4453 142.812 63.0788 141.187 63.0788 139.273C63.0788 137.352 63.4453 135.724 64.1783 134.389C64.9169 133.054 65.9141 132.04 67.1697 131.347C68.4254 130.653 69.8374 130.307 71.4055 130.307C72.968 130.307 74.3771 130.653 75.6328 131.347C76.8942 132.04 77.8942 133.054 78.6328 134.389C79.3714 135.724 79.7408 137.352 79.7408 139.273ZM75.4283 139.273C75.4283 138.136 75.2663 137.176 74.9425 136.392C74.6243 135.608 74.1641 135.014 73.5618 134.611C72.9652 134.207 72.2464 134.006 71.4055 134.006C70.5703 134.006 69.8516 134.207 69.2493 134.611C68.647 135.014 68.1839 135.608 67.8601 136.392C67.5419 137.176 67.3828 138.136 67.3828 139.273C67.3828 140.409 67.5419 141.369 67.8601 142.153C68.1839 142.937 68.647 143.531 69.2493 143.935C69.8516 144.338 70.5703 144.54 71.4055 144.54C72.2464 144.54 72.9652 144.338 73.5618 143.935C74.1641 143.531 74.6243 142.937 74.9425 142.153C75.2663 141.369 75.4283 140.409 75.4283 139.273ZM87.3601 148V130.545H99.2749V133.972H91.5788V137.551H98.5163V140.986H91.5788V148H87.3601ZM105.618 130.545V148H101.399V130.545H105.618ZM123.121 130.545V148H119.542L112.596 137.926H112.485V148H108.266V130.545H111.897L118.766 140.602H118.911V130.545H123.121ZM132.226 148H125.774V130.545H132.217C133.996 130.545 135.527 130.895 136.811 131.594C138.101 132.287 139.095 133.287 139.794 134.594C140.493 135.895 140.842 137.452 140.842 139.264C140.842 141.082 140.493 142.645 139.794 143.952C139.101 145.259 138.109 146.261 136.82 146.96C135.53 147.653 133.999 148 132.226 148ZM129.993 144.403H132.064C133.041 144.403 133.868 144.239 134.544 143.909C135.226 143.574 135.74 143.031 136.087 142.281C136.439 141.526 136.615 140.52 136.615 139.264C136.615 138.009 136.439 137.009 136.087 136.264C135.734 135.514 135.214 134.974 134.527 134.645C133.845 134.31 133.004 134.142 132.004 134.142H129.993V144.403ZM143.305 148V130.545H155.476V133.972H147.524V137.551H154.854V140.986H147.524V144.574H155.476V148H143.305ZM158.118 148V130.545H165.328C166.635 130.545 167.763 130.781 168.712 131.253C169.666 131.719 170.402 132.389 170.919 133.264C171.436 134.134 171.695 135.165 171.695 136.358C171.695 137.568 171.43 138.597 170.902 139.443C170.374 140.284 169.624 140.926 168.652 141.369C167.68 141.807 166.53 142.026 165.2 142.026H160.641V138.702H164.416C165.053 138.702 165.584 138.619 166.01 138.455C166.442 138.284 166.768 138.028 166.99 137.688C167.212 137.341 167.322 136.898 167.322 136.358C167.322 135.818 167.212 135.372 166.99 135.02C166.768 134.662 166.442 134.395 166.01 134.219C165.578 134.037 165.047 133.946 164.416 133.946H162.337V148H158.118ZM167.945 140.023L172.291 148H167.689L163.428 140.023H167.945Z" fill="white"/>
<path d="M111.25 62.625H126.25" stroke="white" stroke-width="6" stroke-linecap="round" stroke-linejoin="round"/>
<path d="M73.75 62.625H88.75" stroke="white" stroke-width="6" stroke-linecap="round" stroke-linejoin="round"/>
<path d="M81.25 55.125V70.125" stroke="white" stroke-width="6" stroke-linecap="round" stroke-linejoin="round"/>
<path d="M120.626 38.1094L79.376 38.25C73.6466 38.2609 68.1035 40.2858 63.7162 43.9704C59.3289 47.6551 56.3767 52.765 55.376 58.4063V58.4063L47.6885 97.8281C47.1949 100.581 47.5936 103.42 48.8264 105.93C50.0593 108.441 52.0619 110.492 54.5421 111.784C57.0224 113.076 59.8507 113.543 62.6146 113.115C65.3786 112.687 67.9336 111.388 69.9072 109.406V109.406L90.1572 87L120.626 86.8594C127.091 86.8594 133.29 84.2913 137.862 79.7201C142.433 75.1489 145.001 68.949 145.001 62.4844C145.001 56.0197 142.433 49.8198 137.862 45.2486C133.29 40.6774 127.091 38.1094 120.626 38.1094V38.1094Z" stroke="white" stroke-width="6" stroke-linecap="round" stroke-linejoin="round"/>
<path d="M144.625 58.2656L152.313 97.8281C152.806 100.581 152.407 103.42 151.175 105.93C149.942 108.441 147.939 110.492 145.459 111.784C142.979 113.076 140.15 113.543 137.386 113.115C134.622 112.687 132.067 111.388 130.094 109.406V109.406L109.844 86.9063" stroke="white" stroke-width="6" stroke-linecap="round" stroke-linejoin="round"/>
<defs>
<linearGradient id="paint0_linear_502_1850" x1="-9.94787e-08" y1="88" x2="200" y2="87.5" gradientUnits="userSpaceOnUse">
<stop stop-color="#2137BF"/>
<stop offset="0.526042" stop-color="#7B22CD"/>
<stop offset="1" stop-color="#FF2AA1"/>
</linearGradient>
</defs>
</svg>
