<svg width="38" height="28" viewBox="0 0 38 28" fill="none" xmlns="http://www.w3.org/2000/svg">
<path d="M22.75 9.875H27.75" stroke="url(#paint0_linear_625_1871)" stroke-width="2" stroke-linecap="round" stroke-linejoin="round"/>
<path d="M10.25 9.875H15.25" stroke="url(#paint1_linear_625_1871)" stroke-width="2" stroke-linecap="round" stroke-linejoin="round"/>
<path d="M12.75 7.375V12.375" stroke="url(#paint2_linear_625_1871)" stroke-width="2" stroke-linecap="round" stroke-linejoin="round"/>
<path d="M25.8758 1.70312L12.1258 1.75C10.216 1.75363 8.36832 2.42859 6.90588 3.65681C5.44344 4.88504 4.45937 6.58833 4.12581 8.46875V8.46875L1.56331 21.6094C1.39877 22.527 1.53167 23.4732 1.94263 24.31C2.35358 25.1469 3.02111 25.8305 3.84787 26.2613C4.67463 26.6922 5.61739 26.8476 6.5387 26.705C7.46001 26.5625 8.31169 26.1293 8.96956 25.4688V25.4688L15.7196 18L25.8758 17.9531C28.0307 17.9531 30.0973 17.0971 31.621 15.5734C33.1448 14.0496 34.0008 11.983 34.0008 9.82813C34.0008 7.67324 33.1448 5.60662 31.621 4.08288C30.0973 2.55915 28.0307 1.70313 25.8758 1.70312V1.70312Z" stroke="url(#paint3_linear_625_1871)" stroke-width="2" stroke-linecap="round" stroke-linejoin="round"/>
<path d="M33.875 8.42188L36.4375 21.6094C36.602 22.527 36.4691 23.4732 36.0582 24.31C35.6472 25.1469 34.9797 25.8305 34.1529 26.2613C33.3262 26.6922 32.3834 26.8476 31.4621 26.705C30.5408 26.5625 29.6891 26.1293 29.0312 25.4688V25.4688L22.2812 17.9688" stroke="url(#paint4_linear_625_1871)" stroke-width="2" stroke-linecap="round" stroke-linejoin="round"/>
<defs>
<linearGradient id="paint0_linear_625_1871" x1="22.75" y1="9.875" x2="27.75" y2="9.875" gradientUnits="userSpaceOnUse">
<stop stop-color="#2636C0"/>
<stop offset="0.505208" stop-color="#7224CC"/>
<stop offset="1" stop-color="#F52AA5"/>
</linearGradient>
<linearGradient id="paint1_linear_625_1871" x1="10.25" y1="9.875" x2="15.25" y2="9.875" gradientUnits="userSpaceOnUse">
<stop stop-color="#2636C0"/>
<stop offset="0.505208" stop-color="#7224CC"/>
<stop offset="1" stop-color="#F52AA5"/>
</linearGradient>
<linearGradient id="paint2_linear_625_1871" x1="12.75" y1="7.375" x2="13.75" y2="7.375" gradientUnits="userSpaceOnUse">
<stop stop-color="#2636C0"/>
<stop offset="0.505208" stop-color="#7224CC"/>
<stop offset="1" stop-color="#F52AA5"/>
</linearGradient>
<linearGradient id="paint3_linear_625_1871" x1="1.49463" y1="1.70312" x2="34.0008" y2="1.70312" gradientUnits="userSpaceOnUse">
<stop stop-color="#2636C0"/>
<stop offset="0.505208" stop-color="#7224CC"/>
<stop offset="1" stop-color="#F52AA5"/>
</linearGradient>
<linearGradient id="paint4_linear_625_1871" x1="22.2813" y1="8.42188" x2="36.5062" y2="8.42187" gradientUnits="userSpaceOnUse">
<stop stop-color="#2636C0"/>
<stop offset="0.505208" stop-color="#7224CC"/>
<stop offset="1" stop-color="#F52AA5"/>
</linearGradient>
</defs>
</svg>
